<?xml version="1.0" encoding="utf-8"?>
<!-- Generator: Adobe Illustrator 18.0.0, SVG Export Plug-In . SVG Version: 6.00 Build 0)  -->
<!DOCTYPE svg PUBLIC "-//W3C//DTD SVG 1.1//EN" "http://www.w3.org/Graphics/SVG/1.1/DTD/svg11.dtd">
<svg version="1.1" id="Layer_1" xmlns="http://www.w3.org/2000/svg" xmlns:xlink="http://www.w3.org/1999/xlink" x="0px" y="0px"
	 width="81px" height="82px" viewBox="0 0 81 82" enable-background="new 0 0 81 82" xml:space="preserve">
<defs>
	<filter id="Adobe_OpacityMaskFilter" filterUnits="userSpaceOnUse" x="7.7" y="7.6" width="72.9" height="73.5">
		<feColorMatrix  type="matrix" values="1 0 0 0 0  0 1 0 0 0  0 0 1 0 0  0 0 0 1 0"/>
	</filter>
</defs>
<mask maskUnits="userSpaceOnUse" x="7.7" y="7.6" width="72.9" height="73.5" id="mask-2">
	<g filter="url(#Adobe_OpacityMaskFilter)">
		<polygon id="path-1" fill="#FFFFFF" points="44.2,81.1 80.6,81.1 80.6,7.6 7.7,7.6 7.7,81.1 		"/>
	</g>
</mask>
<path id="Fill-1" mask="url(#mask-2)" fill="#1BDFC7" d="M74.1,81.1H14.3c-3.6,0-6.6-3-6.6-6.6V14.2c0-3.6,2.9-6.6,6.6-6.6h59.7
	c3.6,0,6.6,3,6.6,6.6v60.3C80.6,78.1,77.7,81.1,74.1,81.1"/>
<path id="Stroke-6" fill="none" stroke="#233E98" stroke-width="2" stroke-linecap="round" stroke-linejoin="round" d="M67.3,74.5
	H7.6c-3.6,0-6.6-3-6.6-6.6V7.6C1,4,3.9,1,7.6,1h59.7c3.6,0,6.6,3,6.6,6.6v60.3C73.9,71.5,71,74.5,67.3,74.5L67.3,74.5z"/>
<path id="Line" fill="none" stroke="#233E98" stroke-width="2" stroke-linecap="round" stroke-linejoin="round" d="M37.9,27v20.6"/>
<path id="Line_1_" fill="none" stroke="#233E98" stroke-width="2" stroke-linecap="round" stroke-linejoin="round" d="M26.5,37.9
	h21.7"/>
</svg>
