<?xml version="1.0" encoding="utf-8"?>
<!DOCTYPE svg PUBLIC "-//W3C//DTD SVG 1.1//EN" "http://www.w3.org/Graphics/SVG/1.1/DTD/svg11.dtd">
<svg version="1.1" id="designs" xmlns="http://www.w3.org/2000/svg" xmlns:xlink="http://www.w3.org/1999/xlink" x="0px" y="0px"
	 width="114px" height="104px" viewBox="0 0 114 104" enable-background="new 0 0 114 104" xml:space="preserve">
<g>
	<path id="Stroke-7" fill="none" stroke="#233E98" stroke-width="2" stroke-linecap="round" stroke-linejoin="round" d="M101.7,29.3
		v55.8L47.1,98.7V42.9L101.7,29.3z M47.1,43.2v55.5L10.8,75l-0.1-35.1l0.1-16L47.1,43.2z M47.1,43.2l54.6-13.9L65.3,10L10.8,23.9
		L47.1,43.2L47.1,43.2z"/>
	<path id="Stroke-5" fill="none" stroke="#F17EA5" stroke-width="2" stroke-linecap="round" stroke-linejoin="round" d="M22,50.9
		c0,5.7-4.6,10.4-10.4,10.4S1.2,56.7,1.2,50.9s4.6-10.4,10.4-10.4S22,45.2,22,50.9L22,50.9z M78.2,45.3l31.3,16l3.3-26.1L78.2,45.3
		L78.2,45.3z"/>
	<path id="Stroke-9" fill="none" stroke="#F9CF57" stroke-width="2" stroke-linecap="round" stroke-linejoin="round" d="M4.8,89.2
		l24.1-16.7 M10.8,95.7L34.9,79 M16.9,102.2L41,85.4"/>
	<polygon id="Fill-1" fill="#F9CF57" points="78.8,0 66.5,21.2 74.6,27.8 86.8,6.5 	"/>
	<polygon id="Fill-2" fill="#1BDFC7" points="88.9,75.3 57.6,84.1 57.6,70.1 88.9,61.3 	"/>
	<path id="Fill-3" fill="#F9CF57" d="M64.6,67.6c0.2,3.1-2.1,5.8-5.1,6s-5.6-2.2-5.8-5.3c-0.2-3.1,2.1-5.8,5.1-6
		C61.8,62.1,64.4,64.5,64.6,67.6"/>
</g>
</svg>
